<mxfile host="app.diagrams.net" agent="Mozilla/5.0 (Windows NT 10.0; Win64; x64) AppleWebKit/537.36 (KHTML, like Gecko) Chrome/139.0.0.0 Safari/537.36" version="28.1.1">
  <diagram id="C5RBs43oDa-KdzZeNtuy" name="Page-1">
    <mxGraphModel dx="1214" dy="623" grid="1" gridSize="10" guides="1" tooltips="1" connect="1" arrows="1" fold="1" page="1" pageScale="1" pageWidth="827" pageHeight="1169" math="0" shadow="0">
      <root>
        <mxCell id="WIyWlLk6GJQsqaUBKTNV-0" />
        <mxCell id="WIyWlLk6GJQsqaUBKTNV-1" parent="WIyWlLk6GJQsqaUBKTNV-0" />
        <mxCell id="Es3m9U0lyS1IbufWE-0y-148" value="Diagrama de Actividad - Piedra, Papel o Tijeras" style="text;html=1;strokeColor=none;fillColor=none;align=center;verticalAlign=middle;whiteSpace=wrap;rounded=0;fontSize=16;" vertex="1" parent="WIyWlLk6GJQsqaUBKTNV-1">
          <mxGeometry x="300" y="20" width="300" height="30" as="geometry" />
        </mxCell>
        <mxCell id="Es3m9U0lyS1IbufWE-0y-149" value="" style="ellipse;whiteSpace=wrap;html=1;aspect=fixed;fillColor=#000000;" vertex="1" parent="WIyWlLk6GJQsqaUBKTNV-1">
          <mxGeometry x="395" y="60" width="30" height="30" as="geometry" />
        </mxCell>
        <mxCell id="Es3m9U0lyS1IbufWE-0y-150" value="Inicializar aplicación GUI" style="rounded=0;whiteSpace=wrap;html=1;" vertex="1" parent="WIyWlLk6GJQsqaUBKTNV-1">
          <mxGeometry x="335" y="120" width="150" height="40" as="geometry" />
        </mxCell>
        <mxCell id="Es3m9U0lyS1IbufWE-0y-151" value="" style="endArrow=classic;html=1;rounded=0;" edge="1" parent="WIyWlLk6GJQsqaUBKTNV-1" source="Es3m9U0lyS1IbufWE-0y-149" target="Es3m9U0lyS1IbufWE-0y-150">
          <mxGeometry width="50" height="50" relative="1" as="geometry">
            <mxPoint x="375" y="100" as="sourcePoint" />
            <mxPoint x="425" y="50" as="targetPoint" />
          </mxGeometry>
        </mxCell>
        <mxCell id="Es3m9U0lyS1IbufWE-0y-152" value="Mostrar interfaz de usuario" style="rounded=0;whiteSpace=wrap;html=1;" vertex="1" parent="WIyWlLk6GJQsqaUBKTNV-1">
          <mxGeometry x="335" y="180" width="150" height="40" as="geometry" />
        </mxCell>
        <mxCell id="Es3m9U0lyS1IbufWE-0y-153" value="" style="endArrow=classic;html=1;rounded=0;" edge="1" parent="WIyWlLk6GJQsqaUBKTNV-1" source="Es3m9U0lyS1IbufWE-0y-150" target="Es3m9U0lyS1IbufWE-0y-152">
          <mxGeometry width="50" height="50" relative="1" as="geometry">
            <mxPoint x="410" y="160" as="sourcePoint" />
            <mxPoint x="460" y="110" as="targetPoint" />
          </mxGeometry>
        </mxCell>
        <mxCell id="Es3m9U0lyS1IbufWE-0y-154" value="Esperar jugada del usuario" style="rounded=0;whiteSpace=wrap;html=1;" vertex="1" parent="WIyWlLk6GJQsqaUBKTNV-1">
          <mxGeometry x="335" y="240" width="150" height="40" as="geometry" />
        </mxCell>
        <mxCell id="Es3m9U0lyS1IbufWE-0y-155" value="" style="endArrow=classic;html=1;rounded=0;" edge="1" parent="WIyWlLk6GJQsqaUBKTNV-1" source="Es3m9U0lyS1IbufWE-0y-152" target="Es3m9U0lyS1IbufWE-0y-154">
          <mxGeometry width="50" height="50" relative="1" as="geometry">
            <mxPoint x="410" y="220" as="sourcePoint" />
            <mxPoint x="460" y="170" as="targetPoint" />
          </mxGeometry>
        </mxCell>
        <mxCell id="Es3m9U0lyS1IbufWE-0y-156" value="Generar jugada de la computadora" style="rounded=0;whiteSpace=wrap;html=1;" vertex="1" parent="WIyWlLk6GJQsqaUBKTNV-1">
          <mxGeometry x="150" y="320" width="150" height="40" as="geometry" />
        </mxCell>
        <mxCell id="Es3m9U0lyS1IbufWE-0y-157" value="" style="endArrow=classic;html=1;rounded=0;exitX=0.25;exitY=1;exitDx=0;exitDy=0;" edge="1" parent="WIyWlLk6GJQsqaUBKTNV-1" source="Es3m9U0lyS1IbufWE-0y-154" target="Es3m9U0lyS1IbufWE-0y-156">
          <mxGeometry width="50" height="50" relative="1" as="geometry">
            <mxPoint x="370" y="290" as="sourcePoint" />
            <mxPoint x="460" y="230" as="targetPoint" />
            <Array as="points">
              <mxPoint x="373" y="340" />
            </Array>
          </mxGeometry>
        </mxCell>
        <mxCell id="Es3m9U0lyS1IbufWE-0y-158" value="Determinar resultado" style="rounded=0;whiteSpace=wrap;html=1;" vertex="1" parent="WIyWlLk6GJQsqaUBKTNV-1">
          <mxGeometry x="150" y="390" width="150" height="40" as="geometry" />
        </mxCell>
        <mxCell id="Es3m9U0lyS1IbufWE-0y-159" value="" style="endArrow=classic;html=1;rounded=0;" edge="1" parent="WIyWlLk6GJQsqaUBKTNV-1" source="Es3m9U0lyS1IbufWE-0y-156" target="Es3m9U0lyS1IbufWE-0y-158">
          <mxGeometry width="50" height="50" relative="1" as="geometry">
            <mxPoint x="410" y="340" as="sourcePoint" />
            <mxPoint x="460" y="290" as="targetPoint" />
          </mxGeometry>
        </mxCell>
        <mxCell id="Es3m9U0lyS1IbufWE-0y-160" value="Actualizar marcador" style="rounded=0;whiteSpace=wrap;html=1;" vertex="1" parent="WIyWlLk6GJQsqaUBKTNV-1">
          <mxGeometry x="150" y="470" width="150" height="40" as="geometry" />
        </mxCell>
        <mxCell id="Es3m9U0lyS1IbufWE-0y-161" value="" style="endArrow=classic;html=1;rounded=0;" edge="1" parent="WIyWlLk6GJQsqaUBKTNV-1" source="Es3m9U0lyS1IbufWE-0y-158" target="Es3m9U0lyS1IbufWE-0y-160">
          <mxGeometry width="50" height="50" relative="1" as="geometry">
            <mxPoint x="410" y="400" as="sourcePoint" />
            <mxPoint x="460" y="350" as="targetPoint" />
          </mxGeometry>
        </mxCell>
        <mxCell id="Es3m9U0lyS1IbufWE-0y-162" value="Mostrar resultado en pantalla" style="rounded=0;whiteSpace=wrap;html=1;" vertex="1" parent="WIyWlLk6GJQsqaUBKTNV-1">
          <mxGeometry x="150" y="545" width="150" height="40" as="geometry" />
        </mxCell>
        <mxCell id="Es3m9U0lyS1IbufWE-0y-163" value="" style="endArrow=classic;html=1;rounded=0;" edge="1" parent="WIyWlLk6GJQsqaUBKTNV-1" source="Es3m9U0lyS1IbufWE-0y-160" target="Es3m9U0lyS1IbufWE-0y-162">
          <mxGeometry width="50" height="50" relative="1" as="geometry">
            <mxPoint x="410" y="460" as="sourcePoint" />
            <mxPoint x="460" y="410" as="targetPoint" />
          </mxGeometry>
        </mxCell>
        <mxCell id="Es3m9U0lyS1IbufWE-0y-164" value="¿Seguir jugando?" style="rhombus;whiteSpace=wrap;html=1;" vertex="1" parent="WIyWlLk6GJQsqaUBKTNV-1">
          <mxGeometry x="335" y="710" width="150" height="80" as="geometry" />
        </mxCell>
        <mxCell id="Es3m9U0lyS1IbufWE-0y-165" value="" style="endArrow=classic;html=1;rounded=0;" edge="1" parent="WIyWlLk6GJQsqaUBKTNV-1" source="Es3m9U0lyS1IbufWE-0y-162" target="Es3m9U0lyS1IbufWE-0y-164">
          <mxGeometry width="50" height="50" relative="1" as="geometry">
            <mxPoint x="410" y="520" as="sourcePoint" />
            <mxPoint x="460" y="470" as="targetPoint" />
          </mxGeometry>
        </mxCell>
        <mxCell id="Es3m9U0lyS1IbufWE-0y-166" value="Sí" style="text;html=1;strokeColor=none;fillColor=none;align=center;verticalAlign=middle;whiteSpace=wrap;rounded=0;" vertex="1" parent="WIyWlLk6GJQsqaUBKTNV-1">
          <mxGeometry x="270" y="740" width="30" height="20" as="geometry" />
        </mxCell>
        <mxCell id="Es3m9U0lyS1IbufWE-0y-167" value="" style="endArrow=classic;html=1;rounded=0;" edge="1" parent="WIyWlLk6GJQsqaUBKTNV-1" source="Es3m9U0lyS1IbufWE-0y-164" target="Es3m9U0lyS1IbufWE-0y-154">
          <mxGeometry width="50" height="50" relative="1" as="geometry">
            <mxPoint x="335" y="580" as="sourcePoint" />
            <mxPoint x="335" y="240" as="targetPoint" />
            <Array as="points">
              <mxPoint x="410" y="580" />
            </Array>
          </mxGeometry>
        </mxCell>
        <mxCell id="Es3m9U0lyS1IbufWE-0y-168" value="No" style="text;html=1;strokeColor=none;fillColor=none;align=center;verticalAlign=middle;whiteSpace=wrap;rounded=0;" vertex="1" parent="WIyWlLk6GJQsqaUBKTNV-1">
          <mxGeometry x="520" y="740" width="30" height="20" as="geometry" />
        </mxCell>
        <mxCell id="Es3m9U0lyS1IbufWE-0y-169" value="" style="ellipse;whiteSpace=wrap;html=1;aspect=fixed;fillColor=#000000;" vertex="1" parent="WIyWlLk6GJQsqaUBKTNV-1">
          <mxGeometry x="395" y="910" width="30" height="30" as="geometry" />
        </mxCell>
        <mxCell id="Es3m9U0lyS1IbufWE-0y-170" value="" style="endArrow=classic;html=1;rounded=0;" edge="1" parent="WIyWlLk6GJQsqaUBKTNV-1" source="Es3m9U0lyS1IbufWE-0y-164" target="Es3m9U0lyS1IbufWE-0y-169">
          <mxGeometry width="50" height="50" relative="1" as="geometry">
            <mxPoint x="410" y="620" as="sourcePoint" />
            <mxPoint x="375" y="640" as="targetPoint" />
          </mxGeometry>
        </mxCell>
        <mxCell id="Es3m9U0lyS1IbufWE-0y-171" value="Notas:\n- La aplicación utiliza tkinter para la interfaz gráfica\n- Las imágenes se cargan con PIL (Pillow)\n- Las reglas del juego están definidas en un diccionario" style="text;html=1;strokeColor=none;fillColor=none;align=left;verticalAlign=middle;whiteSpace=wrap;rounded=0;" vertex="1" parent="WIyWlLk6GJQsqaUBKTNV-1">
          <mxGeometry x="550" y="120" width="200" height="100" as="geometry" />
        </mxCell>
      </root>
    </mxGraphModel>
  </diagram>
</mxfile>
